<svg width="1593" height="615" viewBox="0 0 1593 615" fill="none" xmlns="http://www.w3.org/2000/svg">
<g filter="url(#filter0_d_99_10)">
<path d="M31 85C31 52.4152 57.4152 26 90 26H1503C1535.58 26 1562 52.4152 1562 85V519.401C1562 551.986 1535.58 578.401 1503 578.401H90C57.4152 578.401 31 551.986 31 519.401V85Z" fill="white"/>
<g filter="url(#filter1_d_99_10)">
<path d="M551.619 221C556.445 221 559.297 226.408 556.57 230.39L407.871 447.538C405.445 451.08 400.193 451.003 397.872 447.392L364.308 395.158C362.988 393.103 363.045 390.453 364.452 388.457L396.717 342.692C398.145 340.667 398.181 337.974 396.809 335.911L367.275 291.522C366.006 289.614 365.934 287.15 367.09 285.172L402.836 223.974C403.911 222.132 405.884 221 408.017 221H551.619Z" fill="#01051D"/>
</g>
<g filter="url(#filter2_d_99_10)">
<path d="M387.123 335.914C388.522 337.957 388.522 340.65 387.123 342.693L315.189 447.769C312.806 451.25 307.671 451.25 305.288 447.77L156.43 230.39C153.703 226.408 156.555 221 161.381 221H305.299C307.279 221 309.131 221.977 310.25 223.611L387.123 335.914Z" fill="#01051D"/>
</g>
<path d="M711.474 370V248.5H742.224C747.524 248.5 752.424 248.95 756.924 249.85C761.424 250.75 765.374 252.35 768.774 254.65C772.274 256.95 774.924 260.15 776.724 264.25C778.624 268.25 779.574 273.5 779.574 280C779.574 284.9 778.874 289.1 777.474 292.6C776.074 296 774.074 298.7 771.474 300.7C768.874 302.7 765.674 304.05 761.874 304.75C766.574 305.45 770.524 307.05 773.724 309.55C776.924 312.05 779.324 315.35 780.924 319.45C782.524 323.55 783.324 328.5 783.324 334.3C783.324 340.4 782.524 345.7 780.924 350.2C779.424 354.7 777.174 358.4 774.174 361.3C771.174 364.2 767.474 366.4 763.074 367.9C758.674 369.3 753.574 370 747.774 370H711.474ZM736.224 352.6H743.124C749.324 352.6 753.574 351.05 755.874 347.95C758.274 344.85 759.474 340.2 759.474 334C759.474 329.2 758.924 325.4 757.824 322.6C756.724 319.7 754.924 317.6 752.424 316.3C750.024 314.9 746.774 314.2 742.674 314.2H736.224V352.6ZM736.224 297.55H742.374C746.674 297.55 749.924 296.95 752.124 295.75C754.324 294.45 755.824 292.55 756.624 290.05C757.524 287.45 757.974 284.3 757.974 280.6C757.974 276.9 757.324 273.95 756.024 271.75C754.824 269.45 752.924 267.8 750.324 266.8C747.824 265.8 744.624 265.3 740.724 265.3H736.224V297.55ZM812.907 370V248.5H837.507V370H812.907ZM882.513 370V266.95H863.763V248.5H925.863V266.95H907.413V370H882.513ZM941.288 370V347.95H962.888V370H941.288ZM998.342 370L982.592 248.5H1003.59L1011.99 322.75L1022.64 248.65H1039.29L1050.39 322.6L1058.79 248.5H1079.49L1063.89 370H1042.89L1031.04 293.05L1019.79 370H998.342ZM1098.78 370L1122.33 248.5H1149.78L1173.18 370H1150.23L1145.88 343.3H1126.68L1122.03 370H1098.78ZM1128.93 328.15H1143.48L1136.13 279.1L1128.93 328.15ZM1200.5 370V248.5H1225.25V353.2H1253.75V370H1200.5ZM1280.39 370V248.5H1305.14V353.2H1333.64V370H1280.39ZM1360.28 370V248.5H1413.23V265.6H1385.03V297.85H1406.78V315.1H1385.03V353.2H1413.53V370H1360.28ZM1452.45 370V266.95H1433.7V248.5H1495.8V266.95H1477.35V370H1452.45Z" fill="#01051D"/>
</g>
<defs>
<filter id="filter0_d_99_10" x="0" y="0" width="1593" height="614.401" filterUnits="userSpaceOnUse" color-interpolation-filters="sRGB">
<feFlood flood-opacity="0" result="BackgroundImageFix"/>
<feColorMatrix in="SourceAlpha" type="matrix" values="0 0 0 0 0 0 0 0 0 0 0 0 0 0 0 0 0 0 127 0" result="hardAlpha"/>
<feMorphology radius="1" operator="dilate" in="SourceAlpha" result="effect1_dropShadow_99_10"/>
<feOffset dy="5"/>
<feGaussianBlur stdDeviation="15"/>
<feComposite in2="hardAlpha" operator="out"/>
<feColorMatrix type="matrix" values="0 0 0 0 0 0 0 0 0 0 0 0 0 0 0 0 0 0 0.15 0"/>
<feBlend mode="normal" in2="BackgroundImageFix" result="effect1_dropShadow_99_10"/>
<feBlend mode="normal" in="SourceGraphic" in2="effect1_dropShadow_99_10" result="shape"/>
</filter>
<filter id="filter1_d_99_10" x="358.356" y="221" width="214.273" height="249.148" filterUnits="userSpaceOnUse" color-interpolation-filters="sRGB">
<feFlood flood-opacity="0" result="BackgroundImageFix"/>
<feColorMatrix in="SourceAlpha" type="matrix" values="0 0 0 0 0 0 0 0 0 0 0 0 0 0 0 0 0 0 127 0" result="hardAlpha"/>
<feOffset dx="5" dy="10"/>
<feGaussianBlur stdDeviation="5"/>
<feComposite in2="hardAlpha" operator="out"/>
<feColorMatrix type="matrix" values="0 0 0 0 0 0 0 0 0 0 0 0 0 0 0 0 0 0 0.25 0"/>
<feBlend mode="normal" in2="BackgroundImageFix" result="effect1_dropShadow_99_10"/>
<feBlend mode="normal" in="SourceGraphic" in2="effect1_dropShadow_99_10" result="shape"/>
</filter>
<filter id="filter2_d_99_10" x="135.37" y="211" width="272.802" height="269.38" filterUnits="userSpaceOnUse" color-interpolation-filters="sRGB">
<feFlood flood-opacity="0" result="BackgroundImageFix"/>
<feColorMatrix in="SourceAlpha" type="matrix" values="0 0 0 0 0 0 0 0 0 0 0 0 0 0 0 0 0 0 127 0" result="hardAlpha"/>
<feOffset dy="10"/>
<feGaussianBlur stdDeviation="10"/>
<feComposite in2="hardAlpha" operator="out"/>
<feColorMatrix type="matrix" values="0 0 0 0 0 0 0 0 0 0 0 0 0 0 0 0 0 0 0.25 0"/>
<feBlend mode="normal" in2="BackgroundImageFix" result="effect1_dropShadow_99_10"/>
<feBlend mode="normal" in="SourceGraphic" in2="effect1_dropShadow_99_10" result="shape"/>
</filter>
</defs>
</svg>
